# xmcd CD database file
#
# Track frame offsets:
#	150
#	23611
#	40564
#	57901
#	89891
#	105567
#	124353
#	148527
#	171120
#	193533
#	213283
#	233571
#	263449
#	293289
#
# Disc length: 4175 seconds
#
# Revision: 1
# Processed by: cddbd v1.5.1PL0 Copyright (c) Steve Scherf et al.
# Submitted via: CDex 1.51
#
DISCID=b6104d0e
DTITLE=Taj Mahal Trio - Live Catch
DYEAR=2003
DGENRE=Blues
TTITLE0=Black Jack Davey
TTITLE1=New Hula Blues
TTITLE2=Good Morning Miss Brown
TTITLE3=Annie Mae
TTITLE4=Fishin' Blues
TTITLE5=Going Up To The Country, Paint My Mailbox Blue
TTITLE6=Big Blues
TTITLE7=Creole Belle
TTITLE8=Corinna
TTITLE9=Stagger Lee
TTITLE10=Freight Train
TTITLE11=Sittin' On Top Of The World
TTITLE12=Blues Ain't Nothin'
TTITLE13=Lovin' In My Baby's Eyes
EXTD=YEAR: 2003
EXTT0=
EXTT1=
EXTT2=
EXTT3=
EXTT4=
EXTT5=
EXTT6=
EXTT7=
EXTT8=
EXTT9=
EXTT10=
EXTT11=
EXTT12=
EXTT13=
PLAYORDER=
